<?xml version="1.0" encoding="utf-8"?>
<!-- Generator: Adobe Illustrator 22.0.0, SVG Export Plug-In . SVG Version: 6.00 Build 0)  -->
<svg version="1.1" id="Layer_1" xmlns="http://www.w3.org/2000/svg" xmlns:xlink="http://www.w3.org/1999/xlink" x="0px" y="0px"
	 viewBox="0 0 488 491.9" style="enable-background:new 0 0 488 491.9;" xml:space="preserve">
<style type="text/css">
	.st0{fill:#8BC34A;}
	.st1{fill:#9C27B0;}
	.st2{fill:#673AB7;stroke:#FFFFFF;stroke-width:20;stroke-miterlimit:10;}
</style>
<g>
	<path class="st0" d="M126.8,46.7L9.6,376.6C-6.1,420.8,32,465.5,78.1,457l344.3-63.5c46.2-8.5,65.8-63.8,35.4-99.6L230.7,27.5
		C200.2-8.2,142.5,2.4,126.8,46.7z"/>
	<path class="st1" d="M85.4,69.5L35.6,416.1c-6.7,46.5,39.5,82.7,83.1,65.3l325-130.2c43.6-17.5,51.9-75.6,15-104.6L183.4,30.3
		C146.5,1.2,92,23.1,85.4,69.5z"/>
	<g>
		<path class="st2" d="M111.8,358V208.7h18.6v132.7h69.4V358H111.8z"/>
		<path class="st2" d="M238.9,310.5v-75.6h17.7v74.5c0,21.9,12.3,35.8,35.1,35.8c22.8,0,35.4-13.9,35.4-35.8v-74.5h17.7v75.6
			c0,30.4-17.9,50.1-53,50.1C256.5,360.7,238.9,340.7,238.9,310.5z"/>
	</g>
</g>
</svg>
