<?xml version="1.0" encoding="utf-8"?>
<!-- Generator: Adobe Illustrator 25.2.3, SVG Export Plug-In . SVG Version: 6.00 Build 0)  -->
<svg version="1.1" id="Camada_1" xmlns="http://www.w3.org/2000/svg" xmlns:xlink="http://www.w3.org/1999/xlink" x="0px" y="0px"
	 viewBox="0 0 283 64" style="enable-background:new 0 0 283 64;" xml:space="preserve">
<style type="text/css">
	.st0{display:none;}
	.st1{font-family:'MyriadPro-Regular';}
	.st2{font-size:41.2505px;}
</style>
<path class="st0" d="M141,16c-11,0-19,7.2-19,18s9,18,20,18c6.7,0,12.6-2.6,16.2-7.1l-7.6-4.4c-2,2.2-5.1,3.5-8.5,3.5
	c-4.8,0-8.9-2.5-10.4-6.5h28c0.2-1.1,0.4-2.3,0.4-3.5C160,23.2,152.1,16,141,16L141,16z M131.6,30.5c1.2-4,4.7-6.5,9.4-6.5
	c4.8,0,8.2,2.5,9.4,6.5H131.6z M248.7,16c-11,0-19,7.2-19,18s9,18,20,18c6.7,0,12.5-2.6,16.2-7.1l-7.6-4.4c-2,2.2-5.1,3.5-8.5,3.5
	c-4.8,0-8.9-2.5-10.4-6.5h28c0.2-1.1,0.4-2.3,0.4-3.5C267.7,23.2,259.8,16,248.7,16L248.7,16z M239.3,30.5c1.2-4,4.7-6.5,9.4-6.5
	c4.8,0,8.2,2.5,9.5,6.5H239.3L239.3,30.5z M200.2,34c0,6,3.9,10,10,10c4.1,0,7.2-1.9,8.8-4.9l7.7,4.4c-3.2,5.3-9.1,8.5-16.5,8.5
	c-11.1,0-19-7.2-19-18s8-18,19-18c7.3,0,13.3,3.2,16.5,8.5l-7.7,4.4c-1.6-3-4.7-4.9-8.8-4.9C204.2,24,200.2,28,200.2,34z M282.7,5
	v46h-9V5H282.7z M37,0l37,64H0L37,0z M129.3,5l-27.7,48L73.9,5h10.4l17.3,30l17.3-30H129.3z M188.2,17v9.7c-1-0.3-2.1-0.5-3.2-0.5
	c-5.8,0-10,4-10,10V51h-9V17h9v9.2C175,21.1,181,17,188.2,17z"/>
<text transform="matrix(1.0255 0 0 1 22 44.8019)" class="st1 st2">My Logo Here</text>
</svg>
